M48
; DRILL file {KiCad (5.1.9)-1} date 03/23/21 22:57:29
; FORMAT={-:-/ absolute / metric / decimal}
; #@! TF.CreationDate,2021-03-23T22:57:29+05:30
; #@! TF.GenerationSoftware,Kicad,Pcbnew,(5.1.9)-1
FMAT,2
METRIC
T1C0.700
T2C0.800
T3C0.900
T4C1.000
%
G90
G05
T1
X133.35Y-76.2
X133.35Y-81.28
X151.13Y-76.2
X151.13Y-81.28
T2
X138.43Y-77.47
X138.43Y-80.01
X138.43Y-82.55
X138.43Y-85.09
X146.05Y-77.47
X146.05Y-80.01
X146.05Y-82.55
X146.05Y-85.09
X149.0Y-88.9
X152.4Y-88.9
T3
X137.16Y-71.12
X139.7Y-71.12
X143.51Y-71.12
X146.05Y-71.12
T4
X133.35Y-86.36
X133.35Y-88.9
T0
M30
