%TF.GenerationSoftware,KiCad,Pcbnew,(5.1.9)-1*%
%TF.CreationDate,2021-03-23T22:57:23+05:30*%
%TF.ProjectId,Project1,50726f6a-6563-4743-912e-6b696361645f,rev?*%
%TF.SameCoordinates,Original*%
%TF.FileFunction,Legend,Top*%
%TF.FilePolarity,Positive*%
%FSLAX46Y46*%
G04 Gerber Fmt 4.6, Leading zero omitted, Abs format (unit mm)*
G04 Created by KiCad (PCBNEW (5.1.9)-1) date 2021-03-23 22:57:23*
%MOMM*%
%LPD*%
G01*
G04 APERTURE LIST*
%ADD10C,0.120000*%
%ADD11C,0.150000*%
G04 APERTURE END LIST*
D10*
%TO.C,VCC1*%
X134680000Y-90230000D02*
X133350000Y-90230000D01*
X134680000Y-88900000D02*
X134680000Y-90230000D01*
X134680000Y-87630000D02*
X132020000Y-87630000D01*
X132020000Y-87630000D02*
X132020000Y-85030000D01*
X134680000Y-87630000D02*
X134680000Y-85030000D01*
X134680000Y-85030000D02*
X132020000Y-85030000D01*
%TO.C,U1*%
X147380000Y-76080000D02*
X137100000Y-76080000D01*
X147380000Y-86480000D02*
X147380000Y-76080000D01*
X137100000Y-86480000D02*
X147380000Y-86480000D01*
X137100000Y-76080000D02*
X137100000Y-86480000D01*
X144890000Y-76140000D02*
X143240000Y-76140000D01*
X144890000Y-86420000D02*
X144890000Y-76140000D01*
X139590000Y-86420000D02*
X144890000Y-86420000D01*
X139590000Y-76140000D02*
X139590000Y-86420000D01*
X141240000Y-76140000D02*
X139590000Y-76140000D01*
X143240000Y-76140000D02*
G75*
G02*
X141240000Y-76140000I-1000000J0D01*
G01*
%TO.C,R3*%
X150210000Y-76820000D02*
X150210000Y-80660000D01*
X152050000Y-76820000D02*
X152050000Y-80660000D01*
%TO.C,R2*%
X132430000Y-76820000D02*
X132430000Y-80660000D01*
X134270000Y-76820000D02*
X134270000Y-80660000D01*
%TO.C,R1*%
X152250000Y-91050000D02*
X149200000Y-91050000D01*
X152250000Y-86750000D02*
X149200000Y-86750000D01*
X149155487Y-86781751D02*
G75*
G03*
X149200000Y-91050000I1544513J-2118249D01*
G01*
X152228234Y-91065526D02*
G75*
G03*
X152250000Y-86750000I-1528234J2165526D01*
G01*
%TO.C,D2*%
X136870000Y-72200000D02*
X136870000Y-72356000D01*
X136870000Y-69884000D02*
X136870000Y-70040000D01*
X139471130Y-72199837D02*
G75*
G02*
X137389039Y-72200000I-1041130J1079837D01*
G01*
X139471130Y-70040163D02*
G75*
G03*
X137389039Y-70040000I-1041130J-1079837D01*
G01*
X140102335Y-72198608D02*
G75*
G02*
X136870000Y-72355516I-1672335J1078608D01*
G01*
X140102335Y-70041392D02*
G75*
G03*
X136870000Y-69884484I-1672335J-1078608D01*
G01*
%TO.C,D1*%
X143220000Y-72200000D02*
X143220000Y-72356000D01*
X143220000Y-69884000D02*
X143220000Y-70040000D01*
X145821130Y-72199837D02*
G75*
G02*
X143739039Y-72200000I-1041130J1079837D01*
G01*
X145821130Y-70040163D02*
G75*
G03*
X143739039Y-70040000I-1041130J-1079837D01*
G01*
X146452335Y-72198608D02*
G75*
G02*
X143220000Y-72355516I-1672335J1078608D01*
G01*
X146452335Y-70041392D02*
G75*
G03*
X143220000Y-69884484I-1672335J-1078608D01*
G01*
%TO.C,VCC1*%
D11*
X131540476Y-90682380D02*
X131873809Y-91682380D01*
X132207142Y-90682380D01*
X133111904Y-91587142D02*
X133064285Y-91634761D01*
X132921428Y-91682380D01*
X132826190Y-91682380D01*
X132683333Y-91634761D01*
X132588095Y-91539523D01*
X132540476Y-91444285D01*
X132492857Y-91253809D01*
X132492857Y-91110952D01*
X132540476Y-90920476D01*
X132588095Y-90825238D01*
X132683333Y-90730000D01*
X132826190Y-90682380D01*
X132921428Y-90682380D01*
X133064285Y-90730000D01*
X133111904Y-90777619D01*
X134111904Y-91587142D02*
X134064285Y-91634761D01*
X133921428Y-91682380D01*
X133826190Y-91682380D01*
X133683333Y-91634761D01*
X133588095Y-91539523D01*
X133540476Y-91444285D01*
X133492857Y-91253809D01*
X133492857Y-91110952D01*
X133540476Y-90920476D01*
X133588095Y-90825238D01*
X133683333Y-90730000D01*
X133826190Y-90682380D01*
X133921428Y-90682380D01*
X134064285Y-90730000D01*
X134111904Y-90777619D01*
X135064285Y-91682380D02*
X134492857Y-91682380D01*
X134778571Y-91682380D02*
X134778571Y-90682380D01*
X134683333Y-90825238D01*
X134588095Y-90920476D01*
X134492857Y-90968095D01*
%TO.C,U1*%
X141478095Y-74592380D02*
X141478095Y-75401904D01*
X141525714Y-75497142D01*
X141573333Y-75544761D01*
X141668571Y-75592380D01*
X141859047Y-75592380D01*
X141954285Y-75544761D01*
X142001904Y-75497142D01*
X142049523Y-75401904D01*
X142049523Y-74592380D01*
X143049523Y-75592380D02*
X142478095Y-75592380D01*
X142763809Y-75592380D02*
X142763809Y-74592380D01*
X142668571Y-74735238D01*
X142573333Y-74830476D01*
X142478095Y-74878095D01*
%TO.C,R3*%
X153502380Y-78906666D02*
X153026190Y-79240000D01*
X153502380Y-79478095D02*
X152502380Y-79478095D01*
X152502380Y-79097142D01*
X152550000Y-79001904D01*
X152597619Y-78954285D01*
X152692857Y-78906666D01*
X152835714Y-78906666D01*
X152930952Y-78954285D01*
X152978571Y-79001904D01*
X153026190Y-79097142D01*
X153026190Y-79478095D01*
X152502380Y-78573333D02*
X152502380Y-77954285D01*
X152883333Y-78287619D01*
X152883333Y-78144761D01*
X152930952Y-78049523D01*
X152978571Y-78001904D01*
X153073809Y-77954285D01*
X153311904Y-77954285D01*
X153407142Y-78001904D01*
X153454761Y-78049523D01*
X153502380Y-78144761D01*
X153502380Y-78430476D01*
X153454761Y-78525714D01*
X153407142Y-78573333D01*
%TO.C,R2*%
X135722380Y-78906666D02*
X135246190Y-79240000D01*
X135722380Y-79478095D02*
X134722380Y-79478095D01*
X134722380Y-79097142D01*
X134770000Y-79001904D01*
X134817619Y-78954285D01*
X134912857Y-78906666D01*
X135055714Y-78906666D01*
X135150952Y-78954285D01*
X135198571Y-79001904D01*
X135246190Y-79097142D01*
X135246190Y-79478095D01*
X134817619Y-78525714D02*
X134770000Y-78478095D01*
X134722380Y-78382857D01*
X134722380Y-78144761D01*
X134770000Y-78049523D01*
X134817619Y-78001904D01*
X134912857Y-77954285D01*
X135008095Y-77954285D01*
X135150952Y-78001904D01*
X135722380Y-78573333D01*
X135722380Y-77954285D01*
%TO.C,R1*%
X150533333Y-92252380D02*
X150200000Y-91776190D01*
X149961904Y-92252380D02*
X149961904Y-91252380D01*
X150342857Y-91252380D01*
X150438095Y-91300000D01*
X150485714Y-91347619D01*
X150533333Y-91442857D01*
X150533333Y-91585714D01*
X150485714Y-91680952D01*
X150438095Y-91728571D01*
X150342857Y-91776190D01*
X149961904Y-91776190D01*
X151485714Y-92252380D02*
X150914285Y-92252380D01*
X151200000Y-92252380D02*
X151200000Y-91252380D01*
X151104761Y-91395238D01*
X151009523Y-91490476D01*
X150914285Y-91538095D01*
%TO.C,D2*%
X137691904Y-68612380D02*
X137691904Y-67612380D01*
X137930000Y-67612380D01*
X138072857Y-67660000D01*
X138168095Y-67755238D01*
X138215714Y-67850476D01*
X138263333Y-68040952D01*
X138263333Y-68183809D01*
X138215714Y-68374285D01*
X138168095Y-68469523D01*
X138072857Y-68564761D01*
X137930000Y-68612380D01*
X137691904Y-68612380D01*
X138644285Y-67707619D02*
X138691904Y-67660000D01*
X138787142Y-67612380D01*
X139025238Y-67612380D01*
X139120476Y-67660000D01*
X139168095Y-67707619D01*
X139215714Y-67802857D01*
X139215714Y-67898095D01*
X139168095Y-68040952D01*
X138596666Y-68612380D01*
X139215714Y-68612380D01*
%TO.C,D1*%
X144041904Y-68612380D02*
X144041904Y-67612380D01*
X144280000Y-67612380D01*
X144422857Y-67660000D01*
X144518095Y-67755238D01*
X144565714Y-67850476D01*
X144613333Y-68040952D01*
X144613333Y-68183809D01*
X144565714Y-68374285D01*
X144518095Y-68469523D01*
X144422857Y-68564761D01*
X144280000Y-68612380D01*
X144041904Y-68612380D01*
X145565714Y-68612380D02*
X144994285Y-68612380D01*
X145280000Y-68612380D02*
X145280000Y-67612380D01*
X145184761Y-67755238D01*
X145089523Y-67850476D01*
X144994285Y-67898095D01*
%TD*%
M02*
