%TF.GenerationSoftware,KiCad,Pcbnew,(5.1.9)-1*%
%TF.CreationDate,2021-03-24T10:04:47+05:30*%
%TF.ProjectId,Project1,50726f6a-6563-4743-912e-6b696361645f,rev?*%
%TF.SameCoordinates,Original*%
%TF.FileFunction,Copper,L1,Top*%
%TF.FilePolarity,Positive*%
%FSLAX46Y46*%
G04 Gerber Fmt 4.6, Leading zero omitted, Abs format (unit mm)*
G04 Created by KiCad (PCBNEW (5.1.9)-1) date 2021-03-24 10:04:47*
%MOMM*%
%LPD*%
G01*
G04 APERTURE LIST*
%TA.AperFunction,ComponentPad*%
%ADD10O,1.700000X1.700000*%
%TD*%
%TA.AperFunction,ComponentPad*%
%ADD11R,1.700000X1.700000*%
%TD*%
%TA.AperFunction,ComponentPad*%
%ADD12O,1.600000X1.600000*%
%TD*%
%TA.AperFunction,ComponentPad*%
%ADD13R,1.600000X1.600000*%
%TD*%
%TA.AperFunction,ComponentPad*%
%ADD14O,1.400000X1.400000*%
%TD*%
%TA.AperFunction,ComponentPad*%
%ADD15C,1.400000*%
%TD*%
%TA.AperFunction,ComponentPad*%
%ADD16C,1.500000*%
%TD*%
%TA.AperFunction,ComponentPad*%
%ADD17C,1.800000*%
%TD*%
%TA.AperFunction,ComponentPad*%
%ADD18R,1.800000X1.800000*%
%TD*%
%TA.AperFunction,Conductor*%
%ADD19C,0.500000*%
%TD*%
G04 APERTURE END LIST*
D10*
%TO.P,VCC1,2*%
%TO.N,GND*%
X133350000Y-86360000D03*
D11*
%TO.P,VCC1,1*%
%TO.N,Net-(R1-Pad1)*%
X133350000Y-88900000D03*
%TD*%
D12*
%TO.P,U1,8*%
%TO.N,Net-(R1-Pad1)*%
X146050000Y-77470000D03*
%TO.P,U1,4*%
X138430000Y-85090000D03*
%TO.P,U1,7*%
%TO.N,Net-(U1-Pad7)*%
X146050000Y-80010000D03*
%TO.P,U1,3*%
%TO.N,Net-(D1-Pad1)*%
X138430000Y-82550000D03*
%TO.P,U1,6*%
%TO.N,Net-(R1-Pad1)*%
X146050000Y-82550000D03*
%TO.P,U1,2*%
%TO.N,Net-(R1-Pad2)*%
X138430000Y-80010000D03*
%TO.P,U1,5*%
%TO.N,Net-(U1-Pad5)*%
X146050000Y-85090000D03*
D13*
%TO.P,U1,1*%
%TO.N,GND*%
X138430000Y-77470000D03*
%TD*%
D14*
%TO.P,R3,2*%
%TO.N,Net-(R1-Pad1)*%
X151130000Y-81280000D03*
D15*
%TO.P,R3,1*%
%TO.N,Net-(D1-Pad2)*%
X151130000Y-76200000D03*
%TD*%
D14*
%TO.P,R2,2*%
%TO.N,Net-(R1-Pad2)*%
X133350000Y-81280000D03*
D15*
%TO.P,R2,1*%
%TO.N,GND*%
X133350000Y-76200000D03*
%TD*%
D16*
%TO.P,R1,2*%
%TO.N,Net-(R1-Pad2)*%
X149000000Y-88900000D03*
%TO.P,R1,1*%
%TO.N,Net-(R1-Pad1)*%
X152400000Y-88900000D03*
%TD*%
D17*
%TO.P,D2,2*%
%TO.N,Net-(D1-Pad1)*%
X139700000Y-71120000D03*
D18*
%TO.P,D2,1*%
%TO.N,GND*%
X137160000Y-71120000D03*
%TD*%
D17*
%TO.P,D1,2*%
%TO.N,Net-(D1-Pad2)*%
X146050000Y-71120000D03*
D18*
%TO.P,D1,1*%
%TO.N,Net-(D1-Pad1)*%
X143510000Y-71120000D03*
%TD*%
D19*
%TO.N,Net-(D1-Pad2)*%
X146050000Y-71120000D02*
X151130000Y-76200000D01*
%TO.N,Net-(D1-Pad1)*%
X143510000Y-71120000D02*
X139700000Y-71120000D01*
X139700000Y-71120000D02*
X142240000Y-73660000D01*
X142240000Y-78740000D02*
X142240000Y-73660000D01*
X138430000Y-82550000D02*
X142240000Y-78740000D01*
%TO.N,Net-(R1-Pad2)*%
X133350000Y-81280000D02*
X134620000Y-80010000D01*
X134620000Y-80010000D02*
X138430000Y-80010000D01*
X149000000Y-88900000D02*
X143510000Y-88900000D01*
X143510000Y-88900000D02*
X143510000Y-87630000D01*
X143510000Y-87630000D02*
X139700000Y-83820000D01*
X139700000Y-83820000D02*
X135890000Y-83820000D01*
X135890000Y-83820000D02*
X133350000Y-81280000D01*
%TO.N,Net-(R1-Pad1)*%
X146050000Y-77470000D02*
X144780000Y-77470000D01*
X144780000Y-77470000D02*
X143510000Y-78740000D01*
X146050000Y-82550000D02*
X144780000Y-82550000D01*
X144780000Y-82550000D02*
X143510000Y-81280000D01*
X143510000Y-81280000D02*
X143510000Y-78740000D01*
X151130000Y-81280000D02*
X152400000Y-81280000D01*
X152400000Y-81280000D02*
X154940000Y-83820000D01*
X154940000Y-83820000D02*
X154940000Y-91440000D01*
X154940000Y-91440000D02*
X153670000Y-92710000D01*
X153670000Y-92710000D02*
X143510000Y-92710000D01*
X143510000Y-92710000D02*
X138430000Y-87630000D01*
X138430000Y-87630000D02*
X138430000Y-85090000D01*
X133350000Y-88900000D02*
X137160000Y-88900000D01*
X137160000Y-88900000D02*
X138430000Y-87630000D01*
X152400000Y-88900000D02*
X151130000Y-87630000D01*
X151130000Y-81280000D02*
X151130000Y-87630000D01*
X146050000Y-82550000D02*
X149860000Y-82550000D01*
X149860000Y-82550000D02*
X151130000Y-81280000D01*
%TO.N,GND*%
X137160000Y-71120000D02*
X134620000Y-71120000D01*
X133350000Y-72390000D02*
X133350000Y-76200000D01*
X134620000Y-71120000D02*
X133350000Y-72390000D01*
X134620000Y-77470000D02*
X133350000Y-76200000D01*
X138430000Y-77470000D02*
X134620000Y-77470000D01*
X133350000Y-76200000D02*
X132080000Y-76200000D01*
X132080000Y-76200000D02*
X130810000Y-77470000D01*
X130810000Y-77470000D02*
X130810000Y-85090000D01*
X133350000Y-86360000D02*
X132080000Y-86360000D01*
X132080000Y-86360000D02*
X130810000Y-85090000D01*
%TD*%
M02*
